<svg width="3249" height="3249" xmlns="http://www.w3.org/2000/svg" xmlns:xlink="http://www.w3.org/1999/xlink" xml:space="preserve" overflow="hidden"><defs><clipPath id="clip0"><rect x="0" y="0" width="3249" height="3249"/></clipPath></defs><g clip-path="url(#clip0)"><rect x="1851" y="179" width="1217" height="2933" fill="#861D00" fill-opacity="0.501961"/><text fill="#861D00" fill-opacity="1" font-family="Century Gothic,Century Gothic_MSFontService,sans-serif" font-style="normal" font-variant="normal" font-weight="700" font-stretch="normal" font-size="83" text-anchor="start" direction="ltr" writing-mode="lr-tb" unicode-bidi="normal" text-decoration="none" transform="matrix(1 0 0 1 1883.65 277)">Tolerance <tspan fill="#861D00" fill-opacity="1" font-family="Century Gothic,Century Gothic_MSFontService,sans-serif" font-style="normal" font-variant="normal" font-weight="700" font-stretch="normal" font-size="83" text-anchor="start" direction="ltr" writing-mode="lr-tb" unicode-bidi="normal" text-decoration="none" x="418.229" y="0">Model</tspan></text><rect x="180" y="179" width="1217" height="2932" fill="#997300" fill-opacity="0.501961"/><text fill="#997300" fill-opacity="1" font-family="Century Gothic,Century Gothic_MSFontService,sans-serif" font-style="normal" font-variant="normal" font-weight="700" font-stretch="normal" font-size="83" text-anchor="start" direction="ltr" writing-mode="lr-tb" unicode-bidi="normal" text-decoration="none" transform="matrix(1 0 0 1 213.317 277)">Transmission Model</text><path d="M421.5 2482.67C421.5 2422.93 469.929 2374.5 529.669 2374.5L962.331 2374.5C1022.07 2374.5 1070.5 2422.93 1070.5 2482.67L1070.5 2916.33C1070.5 2976.07 1022.07 3024.5 962.331 3024.5L529.669 3024.5C469.929 3024.5 421.5 2976.07 421.5 2916.33Z" stroke="#AA3516" stroke-width="3.4375" stroke-linecap="butt" stroke-linejoin="miter" stroke-miterlimit="8" stroke-opacity="1" fill="#E84C22" fill-rule="evenodd" fill-opacity="1"/><text fill="#FFFFFF" fill-opacity="1" font-family="Century Gothic,Century Gothic_MSFontService,sans-serif" font-style="normal" font-variant="normal" font-weight="400" font-stretch="normal" font-size="83" text-anchor="start" direction="ltr" writing-mode="lr-tb" unicode-bidi="normal" text-decoration="none" transform="matrix(1 0 0 1 548.785 2631)">P(Multiple <tspan fill="#FFFFFF" fill-opacity="1" font-family="Century Gothic,Century Gothic_MSFontService,sans-serif" font-style="normal" font-variant="normal" font-weight="400" font-stretch="normal" font-size="83" text-anchor="start" direction="ltr" writing-mode="lr-tb" unicode-bidi="normal" text-decoration="none" x="-9.44165" y="99">Variants in </tspan><tspan fill="#FFFFFF" fill-opacity="1" font-family="Century Gothic,Century Gothic_MSFontService,sans-serif" font-style="normal" font-variant="normal" font-weight="400" font-stretch="normal" font-size="83" text-anchor="start" direction="ltr" writing-mode="lr-tb" unicode-bidi="normal" text-decoration="none" x="-8.02081" y="198">Recipient)</tspan></text><rect x="240" y="435" width="2776" height="933" fill="#F49D00" fill-opacity="0.501961"/><text fill="#FFF2DA" fill-opacity="1" font-family="Century Gothic,Century Gothic_MSFontService,sans-serif" font-style="normal" font-variant="normal" font-weight="700" font-stretch="normal" font-size="83" text-anchor="start" direction="ltr" writing-mode="lr-tb" unicode-bidi="normal" text-decoration="none" transform="matrix(1 0 0 1 273.014 533)">Heritability Model</text><path d="M421.5 729.669C421.5 669.929 469.929 621.5 529.669 621.5L962.331 621.5C1022.07 621.5 1070.5 669.929 1070.5 729.669L1070.5 1162.33C1070.5 1222.07 1022.07 1270.5 962.331 1270.5L529.669 1270.5C469.929 1270.5 421.5 1222.07 421.5 1162.33Z" stroke="#AA3516" stroke-width="3.4375" stroke-linecap="butt" stroke-linejoin="miter" stroke-miterlimit="8" stroke-opacity="1" fill="#E84C22" fill-rule="evenodd" fill-opacity="1"/><text fill="#FFFFFF" fill-opacity="1" font-family="Century Gothic,Century Gothic_MSFontService,sans-serif" font-style="normal" font-variant="normal" font-weight="400" font-stretch="normal" font-size="83" text-anchor="start" direction="ltr" writing-mode="lr-tb" unicode-bidi="normal" text-decoration="none" transform="matrix(1 0 0 1 531.895 927)">Transmitter <tspan fill="#FFFFFF" fill-opacity="1" font-family="Century Gothic,Century Gothic_MSFontService,sans-serif" font-style="normal" font-variant="normal" font-weight="400" font-stretch="normal" font-size="83" text-anchor="start" direction="ltr" writing-mode="lr-tb" unicode-bidi="normal" text-decoration="none" x="116.577" y="99">SpVL</tspan></text><path d="M758.75 1270 758.75 2305.13 731.25 2305.13 731.25 1270ZM786.25 2291.38 745 2373.88 703.75 2291.38Z" fill="#E84C22" fill-rule="nonzero" fill-opacity="1"/><text fill="#E84C22" fill-opacity="1" font-family="Calibri,Calibri_MSFontService,sans-serif" font-style="normal" font-variant="normal" font-weight="700" font-stretch="normal" font-size="303" text-anchor="start" direction="ltr" writing-mode="lr-tb" unicode-bidi="normal" text-decoration="none" transform="matrix(1 0 0 1 1564.37 2798)">?</text><path d="M2203.5 2482.67C2203.5 2422.93 2251.93 2374.5 2311.67 2374.5L2744.33 2374.5C2804.07 2374.5 2852.5 2422.93 2852.5 2482.67L2852.5 2916.33C2852.5 2976.07 2804.07 3024.5 2744.33 3024.5L2311.67 3024.5C2251.93 3024.5 2203.5 2976.07 2203.5 2916.33Z" stroke="#AA3516" stroke-width="3.4375" stroke-linecap="butt" stroke-linejoin="miter" stroke-miterlimit="8" stroke-opacity="1" fill="#E84C22" fill-rule="evenodd" fill-opacity="1"/><text fill="#FFFFFF" fill-opacity="1" font-family="Century Gothic,Century Gothic_MSFontService,sans-serif" font-style="normal" font-variant="normal" font-weight="400" font-stretch="normal" font-size="83" text-anchor="start" direction="ltr" writing-mode="lr-tb" unicode-bidi="normal" text-decoration="none" transform="matrix(1 0 0 1 2338.3 2681)">Recipient <tspan fill="#FFFFFF" fill-opacity="1" font-family="Century Gothic,Century Gothic_MSFontService,sans-serif" font-style="normal" font-variant="normal" font-weight="400" font-stretch="normal" font-size="83" text-anchor="start" direction="ltr" writing-mode="lr-tb" unicode-bidi="normal" text-decoration="none" x="71.6145" y="99">ΔCD4</tspan></text><path d="M2203.5 729.669C2203.5 669.929 2251.93 621.5 2311.67 621.5L2744.33 621.5C2804.07 621.5 2852.5 669.929 2852.5 729.669L2852.5 1162.33C2852.5 1222.07 2804.07 1270.5 2744.33 1270.5L2311.67 1270.5C2251.93 1270.5 2203.5 1222.07 2203.5 1162.33Z" stroke="#AA3516" stroke-width="3.4375" stroke-linecap="butt" stroke-linejoin="miter" stroke-miterlimit="8" stroke-opacity="1" fill="#E84C22" fill-rule="evenodd" fill-opacity="1"/><text fill="#FFFFFF" fill-opacity="1" font-family="Century Gothic,Century Gothic_MSFontService,sans-serif" font-style="normal" font-variant="normal" font-weight="400" font-stretch="normal" font-size="83" text-anchor="start" direction="ltr" writing-mode="lr-tb" unicode-bidi="normal" text-decoration="none" transform="matrix(1 0 0 1 2338.3 927)">Recipient <tspan fill="#FFFFFF" fill-opacity="1" font-family="Century Gothic,Century Gothic_MSFontService,sans-serif" font-style="normal" font-variant="normal" font-weight="400" font-stretch="normal" font-size="83" text-anchor="start" direction="ltr" writing-mode="lr-tb" unicode-bidi="normal" text-decoration="none" x="92.5147" y="99">SpVL</tspan></text><path d="M2541.75 1305 2541.75 2304.89 2514.25 2304.89 2514.25 1305ZM2569.25 2291.14 2528 2373.64 2486.75 2291.14Z" fill="#E84C22" fill-rule="nonzero" fill-opacity="1"/><path d="M1138 875.25 2044.42 875.25 2044.42 902.75 1138 902.75ZM2030.67 847.75 2113.17 889 2030.67 930.25Z" fill="#E84C22" fill-rule="nonzero" fill-opacity="1"/></g></svg>